<svg width="800" height="600" viewBox="0 0 800 600" fill="none" xmlns="http://www.w3.org/2000/svg">
  <!-- Background -->
  <rect width="800" height="600" fill="#f8f9fa"/>
  
  <!-- Study room background -->
  <ellipse cx="400" cy="550" rx="380" ry="50" fill="#e5e7eb" opacity="0.5"/>
  
  <!-- Bookshelves -->
  <rect x="50" y="100" width="200" height="300" rx="10" fill="#6d8351" opacity="0.8"/>
  <rect x="60" y="120" width="180" height="260" fill="#7a9359"/>
  
  <!-- Books on shelves -->
  <rect x="65" y="125" width="15" height="40" fill="#8b5a3c"/>
  <rect x="85" y="125" width="12" height="35" fill="#4a5c2a"/>
  <rect x="100" y="125" width="18" height="42" fill="#b87333"/>
  <rect x="125" y="125" width="14" height="38" fill="#2d4016"/>
  
  <!-- Second shelf -->
  <rect x="65" y="200" width="16" height="45" fill="#5a6b44"/>
  <rect x="85" y="200" width="13" height="40" fill="#8a994d"/>
  <rect x="105" y="200" width="15" height="43" fill="#4a5c2a"/>
  
  <!-- Plants -->
  <circle cx="180" cy="450" r="25" fill="#6d8351"/>
  <rect x="175" y="475" width="10" height="30" fill="#8b5a3c"/>
  
  <circle cx="120" cy="470" r="20" fill="#7a9359"/>
  <rect x="116" y="490" width="8" height="25" fill="#8b5a3c"/>
  
  <!-- Desk and workspace -->
  <rect x="300" y="400" width="400" height="80" rx="5" fill="#d4a574"/>
  <rect x="320" y="350" width="360" height="50" fill="#c19960"/>
  
  <!-- Computer screen -->
  <rect x="480" y="200" width="250" height="150" rx="10" fill="#374151"/>
  <rect x="490" y="210" width="230" height="130" fill="#f3f4f6"/>
  
  <!-- Flow chart elements on screen -->
  <circle cx="520" cy="240" r="12" fill="#6d8351"/>
  <circle cx="580" cy="240" r="12" fill="#7a9359"/>
  <circle cx="640" cy="240" r="12" fill="#8a994d"/>
  <circle cx="700" cy="240" r="12" fill="#5a6b44"/>
  
  <!-- Connecting lines -->
  <line x1="532" y1="240" x2="568" y2="240" stroke="#6d8351" stroke-width="3"/>
  <line x1="592" y1="240" x2="628" y2="240" stroke="#6d8351" stroke-width="3"/>
  <line x1="652" y1="240" x2="688" y2="240" stroke="#6d8351" stroke-width="3"/>
  
  <!-- More flow elements -->
  <rect x="510" y="280" width="60" height="30" rx="5" fill="#6d8351"/>
  <rect x="590" y="280" width="60" height="30" rx="5" fill="#7a9359"/>
  <rect x="670" y="280" width="60" height="30" rx="5" fill="#8a994d"/>
  
  <!-- People -->
  <!-- Person 1 (left) -->
  <circle cx="150" cy="350" r="25" fill="#d4a574"/>
  <rect x="130" y="375" width="40" height="80" rx="20" fill="#6d8351"/>
  <rect x="125" y="390" width="15" height="50" fill="#e5c07b"/>
  <rect x="160" y="390" width="15" height="50" fill="#e5c07b"/>
  <rect x="135" y="440" width="30" height="40" fill="#4a5c2a"/>
  
  <!-- Person 2 (center-left, sitting) -->
  <circle cx="280" cy="330" r="20" fill="#f4a261"/>
  <rect x="265" y="350" width="30" height="50" rx="15" fill="#2a9d8f"/>
  <rect x="250" y="400" width="60" height="20" fill="#264653"/>
  
  <!-- Person 3 (center, standing at board) -->
  <circle cx="420" cy="320" r="22" fill="#e76f51"/>
  <rect x="405" y="342" width="30" height="60" rx="15" fill="#457b9d"/>
  <rect x="400" y="370" width="15" height="40" fill="#f4a261"/>
  <rect x="425" y="370" width="15" height="40" fill="#f4a261"/>
  <rect x="410" y="402" width="20" height="30" fill="#1d3557"/>
  
  <!-- Person 4 (right, sitting) -->
  <circle cx="680" cy="380" r="30" fill="#8b5a3c"/>
  <rect x="660" y="410" width="40" height="70" rx="20" fill="#6d8351"/>
  <rect x="650" y="425" width="20" height="45" fill="#d4a574"/>
  <rect x="670" y="425" width="20" height="45" fill="#d4a574"/>
  
  <!-- Laptop for person 1 -->
  <rect x="120" y="420" width="40" height="25" rx="3" fill="#374151"/>
  <rect x="125" y="425" width="30" height="18" fill="#f3f4f6"/>
  
  <!-- Small decorative elements -->
  <circle cx="130" cy="430" r="3" fill="#6d8351"/>
  <circle cx="140" cy="428" r="2" fill="#7a9359"/>
  
  <!-- Laptop for person 2 -->
  <rect x="260" y="400" width="35" height="20" rx="3" fill="#374151"/>
  <rect x="264" y="403" width="27" height="15" fill="#f3f4f6"/>
  
  <!-- Books/materials on desk -->
  <rect x="650" y="450" width="20" height="3" fill="#6d8351"/>
  <rect x="675" y="448" width="18" height="4" fill="#7a9359"/>
  <rect x="695" y="450" width="16" height="3" fill="#8a994d"/>
  
  <!-- Floating cards/notes -->
  <rect x="80" y="80" width="60" height="80" rx="8" fill="white" stroke="#6d8351" stroke-width="2"/>
  <circle cx="100" cy="100" r="15" fill="#ffb3ba"/>
  <rect x="90" y="125" width="20" height="3" fill="#e5e7eb"/>
  <rect x="90" y="135" width="25" height="2" fill="#e5e7eb"/>
  <rect x="90" y="145" width="18" height="2" fill="#e5e7eb"/>
  
  <rect x="300" y="60" width="60" height="80" rx="8" fill="white" stroke="#5a6b44" stroke-width="2"/>
  <circle cx="330" cy="85" r="18" fill="#87ceeb"/>
  <rect x="315" y="110" width="30" height="3" fill="#e5e7eb"/>
  <rect x="315" y="120" width="25" height="2" fill="#e5e7eb"/>
  
  <rect x="700" y="90" width="60" height="80" rx="8" fill="white" stroke="#7a9359" stroke-width="2"/>
  <circle cx="730" cy="115" r="16" fill="#98fb98"/>
  <path d="M725 110 L730 115 L740 105" stroke="white" stroke-width="3" fill="none"/>
  <rect x="715" y="140" width="30" height="3" fill="#e5e7eb"/>
  <rect x="715" y="150" width="20" height="2" fill="#e5e7eb"/>
  
  <rect x="250" y="180" width="60" height="80" rx="8" fill="white" stroke="#8a994d" stroke-width="2"/>
  <rect x="265" y="200" width="30" height="20" rx="3" fill="#daa520"/>
  <rect x="270" y="205" width="20" height="2" fill="#333"/>
  <rect x="270" y="210" width="15" height="2" fill="#333"/>
  <rect x="270" y="215" width="18" height="2" fill="#333"/>
  <rect x="260" y="235" width="35" height="3" fill="#e5e7eb"/>
  <rect x="260" y="245" width="25" height="2" fill="#e5e7eb"/>
  
  <!-- Ceiling lights -->
  <ellipse cx="200" cy="40" rx="30" ry="8" fill="#ffd700" opacity="0.6"/>
  <ellipse cx="400" cy="40" rx="30" ry="8" fill="#ffd700" opacity="0.6"/>
  
  <!-- Light beams -->
  <path d="M180 48 L180 120 L220 120 L220 48 Z" fill="url(#lightGradient)" opacity="0.3"/>
  <path d="M380 48 L380 120 L420 120 L420 48 Z" fill="url(#lightGradient)" opacity="0.3"/>
  
  <!-- Gradients -->
  <defs>
    <linearGradient id="lightGradient" x1="0%" y1="0%" x2="0%" y2="100%">
      <stop offset="0%" stop-color="#ffd700" stop-opacity="0.4"/>
      <stop offset="100%" stop-color="#ffd700" stop-opacity="0.1"/>
    </linearGradient>
  </defs>
</svg>